<?xml version="1.0" encoding="UTF-8"?>
<!-- Generated by jsxcad -->
<!DOCTYPE svg PUBLIC "-//W3C//DTD SVG 1.1 Tiny//EN" "http://www.w3.org/Graphics/SVG/1.1/DTD/svg11-tiny.dtd">
<svg viewBox="-250 -250 500 500" width="500" height="500" xmlns="http://www.w3.org/2000/svg"><path d="M-65.00926052850019,-9.312266096385445L-13.072178601023262,84.00007666788063L-7.317595803908362,91.55028772694278z" style="fill:rgb(21,57,142)"/><path d="M-55.89878901363711,-2.9325486352881294L-7.317595803908362,91.55028772694278L1.4872998924799516,98.32138787611294z" style="fill:rgb(34,46,160)"/><path d="M-44.36595920244503,1.3952390168564521L1.4872998924799516,98.32138787611294L12.418248033551432,103.15458244989681z" style="fill:rgb(51,38,177)"/><path d="M-30.829407739963127,3.4240524204401805L12.418248033551432,103.15458244989681L25.071513883960282,105.79254841393956z" style="fill:rgb(71,33,192)"/><path d="M73.34039300752747,-54.97473164690365L113.51884930442567,63.13048217053965L118.7776816220316,52.6989569950989z" style="fill:rgb(233,112,197)"/><path d="M-65.00926052850019,-9.312266096385445L-70.77488414081418,-16.617957454562365L-13.072178601023262,84.00007666788063zM-142.02836031335653,-140.86491466864126L-13.706101301545983,83.16835055861412L-13.072178601023262,84.00007666788063z" style="fill:rgb(21,57,142)"/><path d="M67.16742770448131,-44.19806905249408L105.06829264904012,74.18618979858599L113.51884930442567,63.13048217053965z" style="fill:rgb(220,94,208)"/><path d="M-15.828251789086385,3.0046957938452308L25.071513883960282,105.79254841393956L38.941343482971874,106.06930859322046z" style="fill:rgb(92,32,204)"/><path d="M-55.89878901363711,-2.9325486352881294L-65.00926052850019,-9.312266096385445L-7.317595803908362,91.55028772694278z" style="fill:rgb(34,46,160)"/><path d="M57.487056371545194,-32.60923625756819L94.3355168027537,84.21615268569381L105.06829264904012,74.18618979858599z" style="fill:rgb(203,77,216)"/><path d="M2.199387696279984e-14,0.1041324942523121L38.941343482971874,106.06930859322046L53.44131517486576,103.92777761198745z" style="fill:rgb(115,34,214)"/><path d="M45.360631765229876,-21.924367683602235L81.77327897931886,92.76116533829133L94.3355168027537,84.21615268569381z" style="fill:rgb(183,62,221)"/><path d="M15.953055641942452,-5.183976201633609L53.44131517486576,103.92777761198745L67.93495286619921,99.43048227239558z" style="fill:rgb(139,40,220)"/><path d="M119.97275856509725,18.534922346285843L23.904784093234344,-212.8889288383065L122.5761364595834,28.788533744050994z" style="fill:rgb(246,167,149)"/><path d="M31.30644256295893,-12.638994627428742L67.93495286619921,99.43048227239558L81.77327897931886,92.76116533829133z" style="fill:rgb(162,50,222)"/><path d="M-44.36595920244503,1.3952390168564521L-55.89878901363711,-2.9325486352881294L1.4872998924799516,98.32138787611294z" style="fill:rgb(51,38,177)"/><path d="M122.5761364595834,28.788533744050994L22.48564046416648,-201.97452851950982L122.39601573514138,39.93818982451561z" style="fill:rgb(246,149,167)"/><path d="M-30.829407739963127,3.4240524204401805L-44.36595920244503,1.3952390168564521L12.418248033551432,103.15458244989681z" style="fill:rgb(71,33,192)"/><path d="M73.34039300752747,-54.97473164690365L67.16742770448131,-44.19806905249408L113.51884930442567,63.13048217053965z" style="fill:rgb(233,112,197)"/><path d="M122.39601573514138,39.93818982451561L17.615329442777753,-190.17465686300383L119.35872529629759,51.54638668143018z" style="fill:rgb(242,130,183)"/><path d="M-15.828251789086385,3.0046957938452308L-30.829407739963127,3.4240524204401805L25.071513883960282,105.79254841393956z" style="fill:rgb(92,32,204)"/><path d="M17.615329442777753,-190.17465686300383L118.7776816220316,52.6989569950989L119.35872529629759,51.54638668143018z" style="fill:rgb(233,112,197)"/><path d="M67.16742770448131,-44.19806905249408L57.487056371545194,-32.60923625756819L105.06829264904012,74.18618979858599z" style="fill:rgb(220,94,208)"/><path d="M2.199387696279984e-14,0.1041324942523121L-15.828251789086385,3.0046957938452308L38.941343482971874,106.06930859322046z" style="fill:rgb(115,34,214)"/><path d="M57.487056371545194,-32.60923625756819L45.360631765229876,-21.924367683602235L94.3355168027537,84.21615268569381z" style="fill:rgb(203,77,216)"/><path d="M15.953055641942452,-5.183976201633609L2.199387696279984e-14,0.1041324942523121L53.44131517486576,103.92777761198745z" style="fill:rgb(139,40,220)"/><path d="M45.360631765229876,-21.924367683602235L31.30644256295893,-12.638994627428742L81.77327897931886,92.76116533829133z" style="fill:rgb(183,62,221)"/><path d="M2.199387696279984e-14,0.1041324942523121L-70.77488414081418,-16.617957454562365L-65.00926052850019,-9.312266096385445z" style="fill:rgb(83,212,212)"/><path d="M31.30644256295893,-12.638994627428742L15.953055641942452,-5.183976201633609L67.93495286619921,99.43048227239558z" style="fill:rgb(162,50,222)"/><path d="M2.199387696279984e-14,0.1041324942523121L-65.00926052850019,-9.312266096385445L-55.89878901363711,-2.9325486352881294zM2.199387696279984e-14,0.1041324942523121L73.34039300752747,-54.97473164690365L-70.77488414081418,-16.617957454562365zM2.199387696279984e-14,0.1041324942523121L-55.89878901363711,-2.9325486352881294L-44.36595920244503,1.3952390168564521zM2.199387696279984e-14,0.1041324942523121L-44.36595920244503,1.3952390168564521L-30.829407739963127,3.4240524204401805z" style="fill:rgb(83,212,212)"/><path d="M46.697348069642764,-118.11130154933265L-70.77488414081418,-16.617957454562365L73.34039300752747,-54.97473164690365z" style="fill:rgb(127,37,217)"/><path d="M2.199387696279984e-14,0.1041324942523121L67.16742770448131,-44.19806905249408L73.34039300752747,-54.97473164690365z" style="fill:rgb(83,212,212)"/><path d="M-142.02836031335653,-140.86491466864126L-142.64612252957897,-141.60427557796868L-13.706101301545983,83.16835055861412z" style="fill:rgb(21,57,142)"/><path d="M2.199387696279984e-14,0.1041324942523121L-30.829407739963127,3.4240524204401805L-15.828251789086385,3.0046957938452308zM2.199387696279984e-14,0.1041324942523121L57.487056371545194,-32.60923625756819L67.16742770448131,-44.19806905249408z" style="fill:rgb(83,212,212)"/><path d="M46.697348069642764,-118.11130154933265L-104.42598442044601,-75.29645252564099L-70.77488414081418,-16.617957454562365z" style="fill:rgb(127,37,217)"/><path d="M3.016947548522873e-14,0.1041324942522882L-15.863998023035203,5.36272042749877L-31.105113041090384,12.765309465086236zM3.016947548522873e-14,0.1041324942522882L-31.105113041090384,12.765309465086236L-45.246109239903156,22.077017056288504zM2.199387696279984e-14,0.1041324942523121L45.360631765229876,-21.924367683602235L57.487056371545194,-32.60923625756819zM3.016947548522873e-14,0.1041324942522882L-45.246109239903156,22.077017056288504L-57.83431324882862,33.01510994262446z" style="fill:rgb(83,212,212)"/><path d="M119.97275856509725,18.534922346285843L21.93556521993411,-222.5027956941525L23.904784093234344,-212.8889288383065z" style="fill:rgb(246,167,149)"/><path d="M2.199387696279984e-14,0.1041324942523121L31.30644256295893,-12.638994627428742L45.360631765229876,-21.924367683602235zM2.199387696279984e-14,0.1041324942523121L15.953055641942452,-5.183976201633609L31.30644256295893,-12.638994627428742zM3.016947548522873e-14,0.1041324942522882L-57.83431324882862,33.01510994262446L-68.4469980491756,45.25031132643668zM3.016947548522873e-14,0.1041324942522882L31.590785401561934,-3.297777747527082L15.989368454377535,-2.8259558023222806zM3.016947548522873e-14,0.1041324942522882L-68.4469980491756,45.25031132643668L-75.86610694818097,57.07981569093735zM3.016947548522873e-14,0.1041324942522882L46.281099044534216,-1.2427070630089219L31.590785401561934,-3.297777747527082z" style="fill:rgb(83,212,212)"/><path d="M122.5761364595834,28.788533744050994L23.904784093234344,-212.8889288383065L22.48564046416648,-201.97452851950982z" style="fill:rgb(246,149,167)"/><path d="M3.016947548522873e-14,0.1041324942522882L59.536148271673774,3.3384118260997573L46.281099044534216,-1.2427070630089219z" style="fill:rgb(83,212,212)"/><path d="M122.39601573514138,39.93818982451561L22.48564046416648,-201.97452851950982L17.615329442777753,-190.17465686300383z" style="fill:rgb(242,130,183)"/><path d="M3.016947548522873e-14,0.1041324942522882L-75.86610694818097,57.07981569093735L78.8217005609871,18.727456046106198zM3.016947548522873e-14,0.1041324942522882L70.84365860036884,10.36562634261987L59.536148271673774,3.3384118260997573z" style="fill:rgb(83,212,212)"/><path d="M-136.40670563345466,-134.13668203576543L-104.42598442044601,-75.29645252564099L-98.70661940953131,-68.22547830531798z" style="fill:rgb(21,57,142)"/><path d="M17.615329442777753,-190.17465686300383L16.798650297119824,-188.96285450717392L118.7776816220316,52.6989569950989z" style="fill:rgb(233,112,197)"/><path d="M3.016947548522873e-14,0.1041324942522882L78.8217005609871,18.727456046106198L70.84365860036884,10.36562634261987zM-49.0154260122379,-135.93417376730733L-74.52742597800754,-230.3757191180955L-89.63620135596842,-222.92580016869337zM-49.0154260122379,-135.93417376730733L-89.63620135596842,-222.92580016869337L-103.7910807357328,-214.1384867883477zM-49.0154260122379,-135.93417376730733L-58.93877738306186,-236.25225760112832L-74.52742597800754,-230.3757191180955zM-49.0154260122379,-135.93417376730733L-103.7910807357328,-214.1384867883477L-116.53915960670933,-204.28378116600726zM-49.0154260122379,-135.93417376730733L-43.36101452538009,-240.35587918984635L-58.93877738306186,-236.25225760112832z" style="fill:rgb(83,212,212)"/><path d="M-127.08738665352831,-128.54010221177936L-98.70661940953131,-68.22547830531798L-89.4741969673292,-62.17412469083913z" style="fill:rgb(34,46,160)"/><path d="M-49.0154260122379,-135.93417376730733L-116.53915960670933,-204.28378116600726L-127.45400347000569,-193.66397259733108zM-49.0154260122379,-135.93417376730733L-28.296958541835213,-242.52745887867746L-43.36101452538009,-240.35587918984635z" style="fill:rgb(83,212,212)"/><path d="M-136.40670563345466,-134.13668203576543L-142.02836031335653,-140.86491466864126L-104.42598442044601,-75.29645252564099z" style="fill:rgb(21,57,142)"/><path d="M-49.0154260122379,-135.93417376730733L-127.45400347000569,-193.66397259733108L-136.1430483359668,-182.61202724587312zM-49.0154260122379,-135.93417376730733L-14.25525550087107,-242.65385296006087L-28.296958541835213,-242.52745887867746z" style="fill:rgb(83,212,212)"/><path d="M-114.9636711754685,-125.11841280480976L-89.4741969673292,-62.17412469083913L-77.64115752526561,-58.23511797210151z" style="fill:rgb(51,38,177)"/><path d="M-49.0154260122379,-135.93417376730733L-136.1430483359668,-182.61202724587312L-142.25791797594593,-171.48888471422418z" style="fill:rgb(83,212,212)"/><path d="M133.52319617480677,138.218290967883L27.38237353609201,-92.40107434309645L136.58009807898674,151.02204704868544z" style="fill:rgb(246,167,149)"/><path d="M-49.0154260122379,-135.93417376730733L-1.741310548016571,-240.67531867078864L-14.25525550087107,-242.65385296006087z" style="fill:rgb(83,212,212)"/><path d="M1.658425370944728,229.42264840692965L-156.14917143650504,-2.8673114700268463L-8.150246500067112,220.43359981225882zM-127.08738665352831,-128.54010221177936L-136.40670563345466,-134.13668203576543L-98.70661940953131,-68.22547830531798z" style="fill:rgb(34,46,160)"/><path d="M-49.0154260122379,-135.93417376730733L-142.25791797594593,-171.48888471422418L-145.50807326869267,-160.67899240762787z" style="fill:rgb(83,212,212)"/><path d="M-100.46367624290761,-124.09361890700742L-77.64115752526561,-58.23511797210151L-63.63186998765401,-56.645420629655696z" style="fill:rgb(71,33,192)"/><path d="M-49.0154260122379,-135.93417376730733L8.755756612436281,-236.59437599482396L-1.741310548016571,-240.67531867078864z" style="fill:rgb(83,212,212)"/><path d="M16.798650297119824,-188.96285450717392L39.95693121197655,-107.20505946295916L46.697348069642764,-118.11130154933265z" style="fill:rgb(233,112,197)"/><path d="M136.58009807898674,151.02204704868544L25.80225705594521,-78.20162713338216L136.53162451137206,164.79003348039262z" style="fill:rgb(246,149,167)"/><path d="M-49.0154260122379,-135.93417376730733L-145.50807326869267,-160.67899240762787L-145.67786766816263,-150.5826146600037z" style="fill:rgb(83,212,212)"/><path d="M13.86169462051736,236.16002506342173L-145.74303883905733,5.420557991905373L1.658425370944728,229.42264840692965zM-114.9636711754685,-125.11841280480976L-127.08738665352831,-128.54010221177936L-89.4741969673292,-62.17412469083913z" style="fill:rgb(51,38,177)"/><path d="M-49.0154260122379,-135.93417376730733L16.780860872978995,-230.48524623396324L8.755756612436281,-236.59437599482396z" style="fill:rgb(83,212,212)"/><path d="M9.393717236874934,-177.97538666263344L29.52651800474202,-95.36627063291968L39.95693121197655,-107.20505946295916z" style="fill:rgb(220,94,208)"/><path d="M-84.16058976504569,-125.58206920756109L-63.63186998765401,-56.645420629655696L-48.002567228419025,-57.540449114816354z" style="fill:rgb(92,32,204)"/><path d="M-49.0154260122379,-135.93417376730733L-145.67786766816263,-150.5826146600037L-142.64612252957897,-141.60427557796868z" style="fill:rgb(83,212,212)"/><path d="M-1.903954529889467,-165.9115280110985L16.561681757647026,-84.33870905796178L29.52651800474202,-95.36627063291968z" style="fill:rgb(203,77,216)"/><path d="M-66.75048576124287,-129.57603578819166L-48.002567228419025,-57.540449114816354L-31.419070191584485,-60.935577752894986z" style="fill:rgb(115,34,214)"/><path d="M136.53162451137206,164.79003348039262L20.246200849501275,-63.08539717158085L133.27870287803293,178.97608418527315z" style="fill:rgb(242,130,183)"/><path d="M-49.0154260122379,-135.93417376730733L21.93556521993411,-222.5027956941525L16.780860872978995,-230.48524623396324z" style="fill:rgb(83,212,212)"/><path d="M28.011616793822547,240.28906790226304L-132.06072041624543,11.106070826849981L13.86169462051736,236.16002506342173zM-100.46367624290761,-124.09361890700742L-114.9636711754685,-125.11841280480976L-77.64115752526561,-58.23511797210151z" style="fill:rgb(71,33,192)"/><path d="M-15.828455653577322,-154.53603542446524L1.6209181594577766,-74.63731586796341L16.561681757647026,-84.33870905796178z" style="fill:rgb(183,62,221)"/><path d="M-49.0154260122379,-135.93417376730733L-31.419070191584485,-60.935577752894986L-14.621577082996534,-66.71595467826405z" style="fill:rgb(139,40,220)"/><path d="M-31.774547563262505,-144.38385982633943L-14.621577082996534,-66.71595467826405L1.6209181594577766,-74.63731586796341z" style="fill:rgb(162,50,222)"/><path d="M-49.0154260122379,-135.93417376730733L-142.64612252957897,-141.60427557796868L-136.40670563345466,-134.13668203576543z" style="fill:rgb(83,212,212)"/><path d="M16.798650297119824,-188.96285450717392L9.393717236874934,-177.97538666263344L39.95693121197655,-107.20505946295916zM133.27870287803293,178.97608418527315L10.81164070664138,-47.68955380833366L126.8677402001095,192.98094253193557z" style="fill:rgb(233,112,197)"/><path d="M-49.0154260122379,-135.93417376730733L23.904784093234344,-212.8889288383065L21.93556521993411,-222.5027956941525z" style="fill:rgb(83,212,212)"/><path d="M-84.16058976504569,-125.58206920756109L-100.46367624290761,-124.09361890700742L-63.63186998765401,-56.645420629655696zM43.54058767999356,241.5599733426162L-115.5745906327679,13.837401516991717L28.011616793822547,240.28906790226304z" style="fill:rgb(92,32,204)"/><path d="M-49.0154260122379,-135.93417376730733L-136.40670563345466,-134.13668203576543L-127.08738665352831,-128.54010221177936z" style="fill:rgb(83,212,212)"/><path d="M9.393717236874934,-177.97538666263344L-1.903954529889467,-165.9115280110985L29.52651800474202,-95.36627063291968zM126.8677402001095,192.98094253193557L-2.193728716796574,-32.70883984451176L117.50316642480999,206.1827340140329z" style="fill:rgb(220,94,208)"/><path d="M-66.75048576124287,-129.57603578819166L-84.16058976504569,-125.58206920756109L-48.002567228419025,-57.540449114816354z" style="fill:rgb(115,34,214)"/><path d="M-49.0154260122379,-135.93417376730733L22.48564046416648,-201.97452851950982L23.904784093234344,-212.8889288383065z" style="fill:rgb(83,212,212)"/><path d="M59.78529810031382,239.85524147852723L-96.93563191278255,13.3902580933208L43.54058767999356,241.5599733426162z" style="fill:rgb(115,34,214)"/><path d="M-1.903954529889467,-165.9115280110985L-15.828455653577322,-154.53603542446524L16.561681757647026,-84.33870905796178zM117.50316642480999,206.1827340140329L-18.25085569658197,-18.853002729982286L105.54829716139939,217.97394832411402z" style="fill:rgb(203,77,216)"/><path d="M-49.0154260122379,-135.93417376730733L-66.75048576124287,-129.57603578819166L-31.419070191584485,-60.935577752894986z" style="fill:rgb(139,40,220)"/><path d="M-49.0154260122379,-135.93417376730733L-127.08738665352831,-128.54010221177936L-114.9636711754685,-125.11841280480976z" style="fill:rgb(83,212,212)"/><path d="M76.02226477105145,235.20684902758646L-76.94929675940891,9.698324498316735L59.78529810031382,239.85524147852723z" style="fill:rgb(139,40,220)"/><path d="M-15.828455653577322,-154.53603542446524L-31.774547563262505,-144.38385982633943L1.6209181594577766,-74.63731586796341z" style="fill:rgb(183,62,221)"/><path d="M-31.774547563262505,-144.38385982633943L-49.0154260122379,-135.93417376730733L-14.621577082996534,-66.71595467826405z" style="fill:rgb(162,50,222)"/><path d="M105.54829716139939,217.97394832411402L-36.649770133150184,-6.796631257583155L91.5121719856131,227.80179534743374z" style="fill:rgb(183,62,221)"/><path d="M-49.0154260122379,-135.93417376730733L17.615329442777753,-190.17465686300383L22.48564046416648,-201.97452851950982z" style="fill:rgb(83,212,212)"/><path d="M91.5121719856131,227.80179534743374L-56.531769259672174,2.8723862357288183L76.02226477105145,235.20684902758646z" style="fill:rgb(162,50,222)"/><path d="M-49.0154260122379,-135.93417376730733L-114.9636711754685,-125.11841280480976L-100.46367624290761,-124.09361890700742zM-49.0154260122379,-135.93417376730733L9.393717236874934,-177.97538666263344L17.615329442777753,-190.17465686300383zM-49.0154260122379,-135.93417376730733L-100.46367624290761,-124.09361890700742L-84.16058976504569,-125.58206920756109zM-49.0154260122379,-135.93417376730733L-1.903954529889467,-165.9115280110985L9.393717236874934,-177.97538666263344zM-84.37424953446343,-123.25778751818054L-101.47358633290274,-114.87525366963276L-117.5279600645469,-104.68687819875898zM-49.0154260122379,-135.93417376730733L-84.16058976504569,-125.58206920756109L-66.75048576124287,-129.57603578819166zM-84.37424953446343,-123.25778751818054L-117.5279600645469,-104.68687819875898L-132.03766640992305,-92.99362062127607zM-49.0154260122379,-135.93417376730733L-15.828455653577322,-154.53603542446524L-1.903954529889467,-165.9115280110985zM-84.37424953446343,-123.25778751818054L-49.14096877377398,-133.61573806090348L-66.75048576124287,-129.57603578819166zM-49.0154260122379,-135.93417376730733L-31.774547563262505,-144.38385982633943L-15.828455653577322,-154.53603542446524zM-84.37424953446343,-123.25778751818054L-132.03766640992305,-92.99362062127607L-144.52783437543013,-80.13859268414048zM-84.37424953446343,-123.25778751818054L-32.09957812068656,-135.21093379841508L-49.14096877377398,-133.61573806090348zM-84.37424953446343,-123.25778751818054L-144.52783437543013,-80.13859268414048L-154.55511119291967,-66.50736403586644z" style="fill:rgb(83,212,212)"/><path d="M133.52319617480677,138.218290967883L25.080547196001568,-105.13514033521366L27.38237353609201,-92.40107434309645z" style="fill:rgb(246,167,149)"/><path d="M-84.37424953446343,-123.25778751818054L-16.19061886768066,-134.2506134302168L-32.09957812068656,-135.21093379841508zM-84.37424953446343,-123.25778751818054L-154.55511119291967,-66.50736403586644L-161.71820996467315,-52.527420979026445zM-84.37424953446343,-123.25778751818054L-1.9805809781293062,-130.688069345434L-16.19061886768066,-134.2506134302168z" style="fill:rgb(83,212,212)"/><path d="M1.658425370944728,229.42264840692965L-145.74303883905733,5.420557991905373L-156.14917143650504,-2.8673114700268463z" style="fill:rgb(34,46,160)"/><path d="M136.58009807898674,151.02204704868544L27.38237353609201,-92.40107434309645L25.80225705594521,-78.20162713338216z" style="fill:rgb(246,149,167)"/><path d="M-84.37424953446343,-123.25778751818054L-161.71820996467315,-52.527420979026445L-165.67298632516312,-38.665489010096046zM-84.37424953446343,-123.25778751818054L9.975127508627153,-124.55252839054225L-1.9805809781293062,-130.688069345434zM-84.37424953446343,-123.25778751818054L-165.67298632516312,-38.665489010096046L-166.15240863927747,-25.420996407223456z" style="fill:rgb(83,212,212)"/><path d="M13.86169462051736,236.16002506342173L-132.06072041624543,11.106070826849981L-145.74303883905733,5.420557991905373z" style="fill:rgb(51,38,177)"/><path d="M136.53162451137206,164.79003348039262L25.80225705594521,-78.20162713338216L20.246200849501275,-63.08539717158085z" style="fill:rgb(242,130,183)"/><path d="M-84.37424953446343,-123.25778751818054L19.151605337202763,-115.96192356448783L9.975127508627153,-124.55252839054225zM-84.37424953446343,-123.25778751818054L-166.15240863927747,-25.420996407223456L-162.9905793550508,-13.31413749356822z" style="fill:rgb(83,212,212)"/><path d="M28.011616793822547,240.28906790226304L-115.5745906327679,13.837401516991717L-132.06072041624543,11.106070826849981z" style="fill:rgb(71,33,192)"/><path d="M-84.37424953446343,-123.25778751818054L25.080547196001568,-105.13514033521366L19.151605337202763,-115.96192356448783z" style="fill:rgb(83,212,212)"/><path d="M133.27870287803293,178.97608418527315L20.246200849501275,-63.08539717158085L10.81164070664138,-47.68955380833366z" style="fill:rgb(233,112,197)"/><path d="M-84.37424953446343,-123.25778751818054L-162.9905793550508,-13.31413749356822L-156.14917143650504,-2.8673114700268463z" style="fill:rgb(83,212,212)"/><path d="M43.54058767999356,241.5599733426162L-96.93563191278255,13.3902580933208L-115.5745906327679,13.837401516991717z" style="fill:rgb(92,32,204)"/><path d="M126.8677402001095,192.98094253193557L10.81164070664138,-47.68955380833366L-2.193728716796574,-32.70883984451176z" style="fill:rgb(220,94,208)"/><path d="M-84.37424953446343,-123.25778751818054L27.38237353609201,-92.40107434309645L25.080547196001568,-105.13514033521366z" style="fill:rgb(83,212,212)"/><path d="M59.78529810031382,239.85524147852723L-76.94929675940891,9.698324498316735L-96.93563191278255,13.3902580933208z" style="fill:rgb(115,34,214)"/><path d="M117.50316642480999,206.1827340140329L-2.193728716796574,-32.70883984451176L-18.25085569658197,-18.853002729982286z" style="fill:rgb(203,77,216)"/><path d="M-84.37424953446343,-123.25778751818054L-156.14917143650504,-2.8673114700268463L-145.74303883905733,5.420557991905373zM-84.37424953446343,-123.25778751818054L25.80225705594521,-78.20162713338216L27.38237353609201,-92.40107434309645z" style="fill:rgb(83,212,212)"/><path d="M76.02226477105145,235.20684902758646L-56.531769259672174,2.8723862357288183L-76.94929675940891,9.698324498316735z" style="fill:rgb(139,40,220)"/><path d="M105.54829716139939,217.97394832411402L-18.25085569658197,-18.853002729982286L-36.649770133150184,-6.796631257583155z" style="fill:rgb(183,62,221)"/><path d="M91.5121719856131,227.80179534743374L-36.649770133150184,-6.796631257583155L-56.531769259672174,2.8723862357288183z" style="fill:rgb(162,50,222)"/><path d="M-84.37424953446343,-123.25778751818054L-145.74303883905733,5.420557991905373L-132.06072041624543,11.106070826849981zM-84.37424953446343,-123.25778751818054L20.246200849501275,-63.08539717158085L25.80225705594521,-78.20162713338216zM-84.37424953446343,-123.25778751818054L-132.06072041624543,11.106070826849981L-115.5745906327679,13.837401516991717zM-84.37424953446343,-123.25778751818054L10.81164070664138,-47.68955380833366L20.246200849501275,-63.08539717158085zM-84.37424953446343,-123.25778751818054L-115.5745906327679,13.837401516991717L-96.93563191278255,13.3902580933208zM-84.37424953446343,-123.25778751818054L-2.193728716796574,-32.70883984451176L10.81164070664138,-47.68955380833366zM-84.37424953446343,-123.25778751818054L-96.93563191278255,13.3902580933208L-76.94929675940891,9.698324498316735zM-84.37424953446343,-123.25778751818054L-18.25085569658197,-18.853002729982286L-2.193728716796574,-32.70883984451176zM-84.37424953446343,-123.25778751818054L-76.94929675940891,9.698324498316735L-56.531769259672174,2.8723862357288183zM-84.37424953446343,-123.25778751818054L-36.649770133150184,-6.796631257583155L-18.25085569658197,-18.853002729982286zM-84.37424953446343,-123.25778751818054L-56.531769259672174,2.8723862357288183L-36.649770133150184,-6.796631257583155z" style="fill:rgb(83,212,212)"/></svg>
